M48
;DRILL file {KiCad (5.0.0)} date 06/12/19 14:05:27
;FORMAT={-:-/ absolute / metric / decimal}
FMAT,2
METRIC,TZ
T1C0.700
T2C0.750
T3C0.800
T4C0.900
T5C1.520
%
G90
G05
M71
T1
X173.736Y-91.948
X133.604Y-101.6
X166.116Y-101.6
X173.736Y-101.6
X169.672Y-110.236
X177.292Y-110.236
X169.672Y-108.204
X177.292Y-108.204
X179.07Y-118.173
X186.69Y-118.173
X166.116Y-91.948
X133.604Y-109.22
X169.672Y-106.172
X177.292Y-106.172
X159.004Y-107.696
X166.624Y-107.696
T2
X140.97Y-96.52
X142.24Y-95.25
X142.24Y-97.79
X140.97Y-106.68
X142.24Y-105.41
X142.24Y-107.95
X168.402Y-97.282
X169.672Y-96.012
X169.672Y-98.552
X155.448Y-96.52
X156.718Y-95.25
X157.988Y-96.52
X184.531Y-97.091
X185.801Y-95.822
X185.801Y-98.361
X149.034Y-111.823
X150.304Y-110.553
X151.575Y-111.823
X149.047Y-119.38
X150.317Y-118.11
X151.587Y-119.38
T3
X143.336Y-101.6
X148.336Y-101.6
T4
X193.137Y-113.172
X193.137Y-118.252
X156.464Y-101.6
X161.544Y-101.6
X182.118Y-104.076
X187.198Y-104.076
X175.301Y-96.911
X180.381Y-96.911
X177.292Y-91.44
X182.372Y-91.44
X149.86Y-105.664
X154.94Y-105.664
T5
X160.21Y-117.983
X165.29Y-117.983
X170.37Y-117.983
X125.984Y-95.758
X125.984Y-100.838
X125.984Y-105.918
X199.2Y-98.679
X199.2Y-103.759
T0
M30
