G04 #@! TF.GenerationSoftware,KiCad,Pcbnew,(5.0.0)*
G04 #@! TF.CreationDate,2019-06-12T13:43:47+03:00*
G04 #@! TF.ProjectId,OP pastiprin_t_js,4F502070617374697072696E0174016A,rev?*
G04 #@! TF.SameCoordinates,Original*
G04 #@! TF.FileFunction,Copper,L1,Top,Signal*
G04 #@! TF.FilePolarity,Positive*
%FSLAX46Y46*%
G04 Gerber Fmt 4.6, Leading zero omitted, Abs format (unit mm)*
G04 Created by KiCad (PCBNEW (5.0.0)) date 06/12/19 13:43:48*
%MOMM*%
%LPD*%
G01*
G04 APERTURE LIST*
G04 #@! TA.AperFunction,ComponentPad*
%ADD10C,1.400000*%
G04 #@! TD*
G04 #@! TA.AperFunction,ComponentPad*
%ADD11O,1.400000X1.400000*%
G04 #@! TD*
G04 #@! TA.AperFunction,ComponentPad*
%ADD12C,1.600000*%
G04 #@! TD*
G04 #@! TA.AperFunction,ComponentPad*
%ADD13R,1.800000X1.800000*%
G04 #@! TD*
G04 #@! TA.AperFunction,ComponentPad*
%ADD14O,1.800000X1.800000*%
G04 #@! TD*
G04 #@! TA.AperFunction,ComponentPad*
%ADD15C,3.000000*%
G04 #@! TD*
G04 #@! TA.AperFunction,ComponentPad*
%ADD16R,3.000000X3.000000*%
G04 #@! TD*
G04 #@! TA.AperFunction,ComponentPad*
%ADD17R,1.300000X1.300000*%
G04 #@! TD*
G04 #@! TA.AperFunction,ComponentPad*
%ADD18C,1.300000*%
G04 #@! TD*
G04 #@! TA.AperFunction,Conductor*
%ADD19C,1.000000*%
G04 #@! TD*
G04 #@! TA.AperFunction,Conductor*
%ADD20C,0.750000*%
G04 #@! TD*
G04 #@! TA.AperFunction,Conductor*
%ADD21C,0.250000*%
G04 #@! TD*
G04 #@! TA.AperFunction,Conductor*
%ADD22C,0.254000*%
G04 #@! TD*
G04 APERTURE END LIST*
D10*
G04 #@! TO.P,R6,1*
G04 #@! TO.N,Net-(R6-Pad1)*
X179070000Y-118173500D03*
D11*
G04 #@! TO.P,R6,2*
G04 #@! TO.N,Net-(D2-Pad2)*
X186690000Y-118173500D03*
G04 #@! TD*
D12*
G04 #@! TO.P,C1,1*
G04 #@! TO.N,Net-(C1-Pad1)*
X143336000Y-101600000D03*
G04 #@! TO.P,C1,2*
G04 #@! TO.N,Net-(C1-Pad2)*
X148336000Y-101600000D03*
G04 #@! TD*
D13*
G04 #@! TO.P,D1,1*
G04 #@! TO.N,Net-(D1-Pad1)*
X177292000Y-91440000D03*
D14*
G04 #@! TO.P,D1,2*
G04 #@! TO.N,Net-(D1-Pad2)*
X182372000Y-91440000D03*
G04 #@! TD*
G04 #@! TO.P,D2,2*
G04 #@! TO.N,Net-(D2-Pad2)*
X175300640Y-96911160D03*
D13*
G04 #@! TO.P,D2,1*
G04 #@! TO.N,Net-(D1-Pad2)*
X180380640Y-96911160D03*
G04 #@! TD*
G04 #@! TO.P,D6,1*
G04 #@! TO.N,Net-(D6-Pad1)*
X182118000Y-104076500D03*
D14*
G04 #@! TO.P,D6,2*
G04 #@! TO.N,Net-(D6-Pad2)*
X187198000Y-104076500D03*
G04 #@! TD*
G04 #@! TO.P,D7,2*
G04 #@! TO.N,Net-(D2-Pad2)*
X193136520Y-118252240D03*
D13*
G04 #@! TO.P,D7,1*
G04 #@! TO.N,Net-(D6-Pad2)*
X193136520Y-113172240D03*
G04 #@! TD*
G04 #@! TO.P,D10,1*
G04 #@! TO.N,Net-(D10-Pad1)*
X154940000Y-105664000D03*
D14*
G04 #@! TO.P,D10,2*
G04 #@! TO.N,Net-(C1-Pad2)*
X149860000Y-105664000D03*
G04 #@! TD*
G04 #@! TO.P,D11,2*
G04 #@! TO.N,Net-(D11-Pad2)*
X161544000Y-101600000D03*
D13*
G04 #@! TO.P,D11,1*
G04 #@! TO.N,Net-(C1-Pad2)*
X156464000Y-101600000D03*
G04 #@! TD*
D15*
G04 #@! TO.P,J1,3*
G04 #@! TO.N,Net-(J1-Pad3)*
X125984000Y-105918000D03*
G04 #@! TO.P,J1,2*
G04 #@! TO.N,Earth*
X125984000Y-100838000D03*
D16*
G04 #@! TO.P,J1,1*
G04 #@! TO.N,Net-(J1-Pad1)*
X125984000Y-95758000D03*
G04 #@! TD*
G04 #@! TO.P,J2,1*
G04 #@! TO.N,Net-(D2-Pad2)*
X170370500Y-117983000D03*
D15*
G04 #@! TO.P,J2,2*
G04 #@! TO.N,Earth*
X165290500Y-117983000D03*
G04 #@! TO.P,J2,3*
G04 #@! TO.N,Net-(J2-Pad3)*
X160210500Y-117983000D03*
G04 #@! TD*
D16*
G04 #@! TO.P,J3,1*
G04 #@! TO.N,Net-(J3-Pad1)*
X199199500Y-98679000D03*
D15*
G04 #@! TO.P,J3,2*
G04 #@! TO.N,Earth*
X199199500Y-103759000D03*
G04 #@! TD*
D11*
G04 #@! TO.P,R1,2*
G04 #@! TO.N,Net-(D1-Pad1)*
X177292000Y-106172000D03*
D10*
G04 #@! TO.P,R1,1*
G04 #@! TO.N,Net-(J2-Pad3)*
X169672000Y-106172000D03*
G04 #@! TD*
D11*
G04 #@! TO.P,R2,2*
G04 #@! TO.N,Net-(C1-Pad1)*
X133604000Y-101600000D03*
D10*
G04 #@! TO.P,R2,1*
G04 #@! TO.N,Net-(J2-Pad3)*
X133604000Y-109220000D03*
G04 #@! TD*
D11*
G04 #@! TO.P,R3,2*
G04 #@! TO.N,Net-(D2-Pad2)*
X173736000Y-91948000D03*
D10*
G04 #@! TO.P,R3,1*
G04 #@! TO.N,Net-(R3-Pad1)*
X166116000Y-91948000D03*
G04 #@! TD*
G04 #@! TO.P,R4,1*
G04 #@! TO.N,Net-(J2-Pad3)*
X169672000Y-110236000D03*
D11*
G04 #@! TO.P,R4,2*
G04 #@! TO.N,Net-(D6-Pad1)*
X177292000Y-110236000D03*
G04 #@! TD*
D10*
G04 #@! TO.P,R5,1*
G04 #@! TO.N,Net-(J2-Pad3)*
X169672000Y-108204000D03*
D11*
G04 #@! TO.P,R5,2*
G04 #@! TO.N,Net-(R5-Pad2)*
X177292000Y-108204000D03*
G04 #@! TD*
G04 #@! TO.P,R7,2*
G04 #@! TO.N,Net-(D10-Pad1)*
X166624000Y-107696000D03*
D10*
G04 #@! TO.P,R7,1*
G04 #@! TO.N,Net-(J2-Pad3)*
X159004000Y-107696000D03*
G04 #@! TD*
G04 #@! TO.P,R8,1*
G04 #@! TO.N,Net-(D11-Pad2)*
X166116000Y-101600000D03*
D11*
G04 #@! TO.P,R8,2*
G04 #@! TO.N,Net-(D2-Pad2)*
X173736000Y-101600000D03*
G04 #@! TD*
D17*
G04 #@! TO.P,V4,2*
G04 #@! TO.N,Net-(C1-Pad1)*
X142240000Y-97790000D03*
D18*
G04 #@! TO.P,V4,3*
G04 #@! TO.N,Net-(V14-Pad2)*
X142240000Y-95250000D03*
G04 #@! TO.P,V4,1*
G04 #@! TO.N,Net-(J1-Pad1)*
X140970000Y-96520000D03*
G04 #@! TD*
G04 #@! TO.P,V5,1*
G04 #@! TO.N,Net-(J1-Pad3)*
X140970000Y-106680000D03*
G04 #@! TO.P,V5,3*
G04 #@! TO.N,Net-(V14-Pad2)*
X142240000Y-105410000D03*
D17*
G04 #@! TO.P,V5,2*
G04 #@! TO.N,Net-(J2-Pad3)*
X142240000Y-107950000D03*
G04 #@! TD*
D18*
G04 #@! TO.P,V8,1*
G04 #@! TO.N,Net-(C1-Pad1)*
X150304500Y-110553500D03*
G04 #@! TO.P,V8,3*
G04 #@! TO.N,Net-(R5-Pad2)*
X151574500Y-111823500D03*
D17*
G04 #@! TO.P,V8,2*
G04 #@! TO.N,Net-(C1-Pad2)*
X149034500Y-111823500D03*
G04 #@! TD*
G04 #@! TO.P,V9,2*
G04 #@! TO.N,Net-(C1-Pad2)*
X149047200Y-119380000D03*
D18*
G04 #@! TO.P,V9,3*
G04 #@! TO.N,Net-(R6-Pad1)*
X151587200Y-119380000D03*
G04 #@! TO.P,V9,1*
G04 #@! TO.N,Net-(D6-Pad1)*
X150317200Y-118110000D03*
G04 #@! TD*
G04 #@! TO.P,V12,1*
G04 #@! TO.N,Net-(D10-Pad1)*
X168402000Y-97282000D03*
G04 #@! TO.P,V12,3*
G04 #@! TO.N,Net-(J3-Pad1)*
X169672000Y-96012000D03*
D17*
G04 #@! TO.P,V12,2*
G04 #@! TO.N,Net-(J2-Pad3)*
X169672000Y-98552000D03*
G04 #@! TD*
D18*
G04 #@! TO.P,V13,1*
G04 #@! TO.N,Net-(D11-Pad2)*
X184531000Y-97091500D03*
G04 #@! TO.P,V13,3*
G04 #@! TO.N,Net-(J3-Pad1)*
X185801000Y-95821500D03*
D17*
G04 #@! TO.P,V13,2*
G04 #@! TO.N,Net-(D2-Pad2)*
X185801000Y-98361500D03*
G04 #@! TD*
G04 #@! TO.P,V14,2*
G04 #@! TO.N,Net-(V14-Pad2)*
X155448000Y-96520000D03*
D18*
G04 #@! TO.P,V14,3*
G04 #@! TO.N,Net-(R3-Pad1)*
X157988000Y-96520000D03*
G04 #@! TO.P,V14,1*
G04 #@! TO.N,Net-(D1-Pad1)*
X156718000Y-95250000D03*
G04 #@! TD*
D19*
G04 #@! TO.N,Net-(C1-Pad1)*
X149654501Y-109903501D02*
X150304500Y-110553500D01*
X143336000Y-103585000D02*
X149654501Y-109903501D01*
X143336000Y-101600000D02*
X143336000Y-103585000D01*
D20*
G04 #@! TO.N,Net-(C1-Pad2)*
X148336000Y-101533960D02*
X148336000Y-101600000D01*
X147462240Y-100660200D02*
X148336000Y-101533960D01*
X147462240Y-100599240D02*
X147462240Y-100660200D01*
X142618460Y-111823500D02*
X138694160Y-107899200D01*
X138694160Y-107899200D02*
X138694160Y-103703120D01*
X149034500Y-111823500D02*
X142618460Y-111823500D01*
X138694160Y-103703120D02*
X142427960Y-99969320D01*
X142427960Y-99969320D02*
X146832320Y-99969320D01*
X146832320Y-99969320D02*
X147462240Y-100599240D01*
D21*
X149047200Y-111836200D02*
X149034500Y-111823500D01*
D20*
X149047200Y-119380000D02*
X149047200Y-111836200D01*
G04 #@! TO.N,Net-(D2-Pad2)*
X174725949Y-101600000D02*
X173736000Y-101600000D01*
X181162500Y-101600000D02*
X174725949Y-101600000D01*
X184401000Y-98361500D02*
X181162500Y-101600000D01*
X185801000Y-98361500D02*
X184401000Y-98361500D01*
G04 #@! TO.N,Net-(D6-Pad1)*
X177292000Y-110566200D02*
X177292000Y-110236000D01*
D21*
X150967199Y-117460001D02*
X150317200Y-118110000D01*
D20*
X155397200Y-113030000D02*
X150967199Y-117460001D01*
X177292000Y-110236000D02*
X174498000Y-113030000D01*
X174498000Y-113030000D02*
X155397200Y-113030000D01*
G04 #@! TO.N,Net-(D11-Pad2)*
X166815999Y-100900001D02*
X166116000Y-101600000D01*
X167391001Y-100324999D02*
X166815999Y-100900001D01*
X183128999Y-97091500D02*
X179895500Y-100324999D01*
X184531000Y-97091500D02*
X183128999Y-97091500D01*
X179895500Y-100324999D02*
X167391001Y-100324999D01*
G04 #@! TO.N,Net-(J3-Pad1)*
X169672000Y-96012000D02*
X171513500Y-94170500D01*
X184150000Y-94170500D02*
X183832500Y-94170500D01*
X185801000Y-95821500D02*
X184150000Y-94170500D01*
X171513500Y-94170500D02*
X183832500Y-94170500D01*
G04 #@! TO.N,Net-(R5-Pad2)*
X173672500Y-111823500D02*
X177292000Y-108204000D01*
X151574500Y-111823500D02*
X173672500Y-111823500D01*
G04 #@! TD*
D22*
G04 #@! TO.N,Earth*
G36*
X202498001Y-121850860D02*
X202498000Y-121850865D01*
X202498001Y-123063000D01*
X122622000Y-123063000D01*
X122622000Y-108956043D01*
X132277000Y-108956043D01*
X132277000Y-109483957D01*
X132479024Y-109971685D01*
X132852315Y-110344976D01*
X133340043Y-110547000D01*
X133867957Y-110547000D01*
X134355685Y-110344976D01*
X134728976Y-109971685D01*
X134931000Y-109483957D01*
X134931000Y-108956043D01*
X134728976Y-108468315D01*
X134355685Y-108095024D01*
X133867957Y-107893000D01*
X133340043Y-107893000D01*
X132852315Y-108095024D01*
X132479024Y-108468315D01*
X132277000Y-108956043D01*
X122622000Y-108956043D01*
X122622000Y-105494913D01*
X123857000Y-105494913D01*
X123857000Y-106341087D01*
X124180817Y-107122848D01*
X124779152Y-107721183D01*
X125560913Y-108045000D01*
X126407087Y-108045000D01*
X127188848Y-107721183D01*
X127787183Y-107122848D01*
X128111000Y-106341087D01*
X128111000Y-105494913D01*
X127787183Y-104713152D01*
X127188848Y-104114817D01*
X126407087Y-103791000D01*
X125560913Y-103791000D01*
X124779152Y-104114817D01*
X124180817Y-104713152D01*
X123857000Y-105494913D01*
X122622000Y-105494913D01*
X122622000Y-103703120D01*
X137672530Y-103703120D01*
X137692161Y-103801811D01*
X137692160Y-107800513D01*
X137672530Y-107899200D01*
X137692160Y-107997886D01*
X137750297Y-108290160D01*
X137971758Y-108621602D01*
X138055426Y-108677507D01*
X141840155Y-112462237D01*
X141896058Y-112545902D01*
X142227499Y-112767363D01*
X142519773Y-112825500D01*
X142519774Y-112825500D01*
X142618459Y-112845130D01*
X142717144Y-112825500D01*
X147865614Y-112825500D01*
X147932459Y-112925541D01*
X148045201Y-113000873D01*
X148045200Y-118211114D01*
X147945159Y-118277959D01*
X147806580Y-118485357D01*
X147757917Y-118730000D01*
X147757917Y-120030000D01*
X147806580Y-120274643D01*
X147945159Y-120482041D01*
X148152557Y-120620620D01*
X148397200Y-120669283D01*
X149697200Y-120669283D01*
X149941843Y-120620620D01*
X150149241Y-120482041D01*
X150287820Y-120274643D01*
X150336483Y-120030000D01*
X150336483Y-119697464D01*
X150504612Y-120103362D01*
X150863838Y-120462588D01*
X151333189Y-120657000D01*
X151841211Y-120657000D01*
X152310562Y-120462588D01*
X152669788Y-120103362D01*
X152864200Y-119634011D01*
X152864200Y-119125989D01*
X152669788Y-118656638D01*
X152310562Y-118297412D01*
X151841211Y-118103000D01*
X151741241Y-118103000D01*
X152284328Y-117559913D01*
X158083500Y-117559913D01*
X158083500Y-118406087D01*
X158407317Y-119187848D01*
X159005652Y-119786183D01*
X159787413Y-120110000D01*
X160633587Y-120110000D01*
X161415348Y-119786183D01*
X161708923Y-119492608D01*
X163960497Y-119492608D01*
X164120721Y-119809129D01*
X164908594Y-120117779D01*
X165754609Y-120101428D01*
X166460279Y-119809129D01*
X166620503Y-119492608D01*
X165290500Y-118162605D01*
X163960497Y-119492608D01*
X161708923Y-119492608D01*
X162013683Y-119187848D01*
X162337500Y-118406087D01*
X162337500Y-117601094D01*
X163155721Y-117601094D01*
X163172072Y-118447109D01*
X163464371Y-119152779D01*
X163780892Y-119313003D01*
X165110895Y-117983000D01*
X165470105Y-117983000D01*
X166800108Y-119313003D01*
X167116629Y-119152779D01*
X167425279Y-118364906D01*
X167408928Y-117518891D01*
X167116629Y-116813221D01*
X166800108Y-116652997D01*
X165470105Y-117983000D01*
X165110895Y-117983000D01*
X163780892Y-116652997D01*
X163464371Y-116813221D01*
X163155721Y-117601094D01*
X162337500Y-117601094D01*
X162337500Y-117559913D01*
X162013683Y-116778152D01*
X161708923Y-116473392D01*
X163960497Y-116473392D01*
X165290500Y-117803395D01*
X166610895Y-116483000D01*
X168231217Y-116483000D01*
X168231217Y-119483000D01*
X168279880Y-119727643D01*
X168418459Y-119935041D01*
X168625857Y-120073620D01*
X168870500Y-120122283D01*
X171870500Y-120122283D01*
X172115143Y-120073620D01*
X172322541Y-119935041D01*
X172461120Y-119727643D01*
X172509783Y-119483000D01*
X172509783Y-117909543D01*
X177743000Y-117909543D01*
X177743000Y-118437457D01*
X177945024Y-118925185D01*
X178318315Y-119298476D01*
X178806043Y-119500500D01*
X179333957Y-119500500D01*
X179821685Y-119298476D01*
X180194976Y-118925185D01*
X180397000Y-118437457D01*
X180397000Y-118173500D01*
X185337003Y-118173500D01*
X185439994Y-118691270D01*
X185733287Y-119130213D01*
X186172230Y-119423506D01*
X186559304Y-119500500D01*
X186820696Y-119500500D01*
X187207770Y-119423506D01*
X187646713Y-119130213D01*
X187940006Y-118691270D01*
X188027334Y-118252240D01*
X191579605Y-118252240D01*
X191698118Y-118848046D01*
X192035615Y-119353145D01*
X192540714Y-119690642D01*
X192986127Y-119779240D01*
X193286913Y-119779240D01*
X193732326Y-119690642D01*
X194237425Y-119353145D01*
X194574922Y-118848046D01*
X194693435Y-118252240D01*
X194574922Y-117656434D01*
X194237425Y-117151335D01*
X193732326Y-116813838D01*
X193286913Y-116725240D01*
X192986127Y-116725240D01*
X192540714Y-116813838D01*
X192035615Y-117151335D01*
X191698118Y-117656434D01*
X191579605Y-118252240D01*
X188027334Y-118252240D01*
X188042997Y-118173500D01*
X187940006Y-117655730D01*
X187646713Y-117216787D01*
X187207770Y-116923494D01*
X186820696Y-116846500D01*
X186559304Y-116846500D01*
X186172230Y-116923494D01*
X185733287Y-117216787D01*
X185439994Y-117655730D01*
X185337003Y-118173500D01*
X180397000Y-118173500D01*
X180397000Y-117909543D01*
X180194976Y-117421815D01*
X179821685Y-117048524D01*
X179333957Y-116846500D01*
X178806043Y-116846500D01*
X178318315Y-117048524D01*
X177945024Y-117421815D01*
X177743000Y-117909543D01*
X172509783Y-117909543D01*
X172509783Y-116483000D01*
X172461120Y-116238357D01*
X172322541Y-116030959D01*
X172115143Y-115892380D01*
X171870500Y-115843717D01*
X168870500Y-115843717D01*
X168625857Y-115892380D01*
X168418459Y-116030959D01*
X168279880Y-116238357D01*
X168231217Y-116483000D01*
X166610895Y-116483000D01*
X166620503Y-116473392D01*
X166460279Y-116156871D01*
X165672406Y-115848221D01*
X164826391Y-115864572D01*
X164120721Y-116156871D01*
X163960497Y-116473392D01*
X161708923Y-116473392D01*
X161415348Y-116179817D01*
X160633587Y-115856000D01*
X159787413Y-115856000D01*
X159005652Y-116179817D01*
X158407317Y-116778152D01*
X158083500Y-117559913D01*
X152284328Y-117559913D01*
X155812242Y-114032000D01*
X174399314Y-114032000D01*
X174498000Y-114051630D01*
X174596686Y-114032000D01*
X174596687Y-114032000D01*
X174888961Y-113973863D01*
X175220402Y-113752402D01*
X175276307Y-113668734D01*
X176672801Y-112272240D01*
X191597237Y-112272240D01*
X191597237Y-114072240D01*
X191645900Y-114316883D01*
X191784479Y-114524281D01*
X191991877Y-114662860D01*
X192236520Y-114711523D01*
X194036520Y-114711523D01*
X194281163Y-114662860D01*
X194488561Y-114524281D01*
X194627140Y-114316883D01*
X194675803Y-114072240D01*
X194675803Y-112272240D01*
X194627140Y-112027597D01*
X194488561Y-111820199D01*
X194281163Y-111681620D01*
X194036520Y-111632957D01*
X192236520Y-111632957D01*
X191991877Y-111681620D01*
X191784479Y-111820199D01*
X191645900Y-112027597D01*
X191597237Y-112272240D01*
X176672801Y-112272240D01*
X177373404Y-111571638D01*
X177416828Y-111563000D01*
X177422696Y-111563000D01*
X177809770Y-111486006D01*
X178248713Y-111192713D01*
X178542006Y-110753770D01*
X178644997Y-110236000D01*
X178542006Y-109718230D01*
X178248713Y-109279287D01*
X178159984Y-109220000D01*
X178248713Y-109160713D01*
X178542006Y-108721770D01*
X178644997Y-108204000D01*
X178542006Y-107686230D01*
X178248713Y-107247287D01*
X178159984Y-107188000D01*
X178248713Y-107128713D01*
X178542006Y-106689770D01*
X178644997Y-106172000D01*
X178542006Y-105654230D01*
X178248713Y-105215287D01*
X177809770Y-104921994D01*
X177422696Y-104845000D01*
X177161304Y-104845000D01*
X176774230Y-104921994D01*
X176335287Y-105215287D01*
X176041994Y-105654230D01*
X175939003Y-106172000D01*
X176041994Y-106689770D01*
X176335287Y-107128713D01*
X176424016Y-107188000D01*
X176335287Y-107247287D01*
X176041994Y-107686230D01*
X175954906Y-108124053D01*
X173257459Y-110821500D01*
X170865812Y-110821500D01*
X170999000Y-110499957D01*
X170999000Y-109972043D01*
X170796976Y-109484315D01*
X170532661Y-109220000D01*
X170796976Y-108955685D01*
X170999000Y-108467957D01*
X170999000Y-107940043D01*
X170796976Y-107452315D01*
X170532661Y-107188000D01*
X170796976Y-106923685D01*
X170999000Y-106435957D01*
X170999000Y-105908043D01*
X170796976Y-105420315D01*
X170423685Y-105047024D01*
X169935957Y-104845000D01*
X169408043Y-104845000D01*
X168920315Y-105047024D01*
X168547024Y-105420315D01*
X168345000Y-105908043D01*
X168345000Y-106435957D01*
X168547024Y-106923685D01*
X168811339Y-107188000D01*
X168547024Y-107452315D01*
X168345000Y-107940043D01*
X168345000Y-108467957D01*
X168547024Y-108955685D01*
X168811339Y-109220000D01*
X168547024Y-109484315D01*
X168345000Y-109972043D01*
X168345000Y-110499957D01*
X168478188Y-110821500D01*
X152378450Y-110821500D01*
X152297862Y-110740912D01*
X151828511Y-110546500D01*
X151581500Y-110546500D01*
X151581500Y-110299489D01*
X151387088Y-109830138D01*
X151027862Y-109470912D01*
X150665729Y-109320911D01*
X150529900Y-109185082D01*
X150529898Y-109185079D01*
X148776862Y-107432043D01*
X157677000Y-107432043D01*
X157677000Y-107959957D01*
X157879024Y-108447685D01*
X158252315Y-108820976D01*
X158740043Y-109023000D01*
X159267957Y-109023000D01*
X159755685Y-108820976D01*
X160128976Y-108447685D01*
X160331000Y-107959957D01*
X160331000Y-107696000D01*
X165271003Y-107696000D01*
X165373994Y-108213770D01*
X165667287Y-108652713D01*
X166106230Y-108946006D01*
X166493304Y-109023000D01*
X166754696Y-109023000D01*
X167141770Y-108946006D01*
X167580713Y-108652713D01*
X167874006Y-108213770D01*
X167976997Y-107696000D01*
X167874006Y-107178230D01*
X167580713Y-106739287D01*
X167141770Y-106445994D01*
X166754696Y-106369000D01*
X166493304Y-106369000D01*
X166106230Y-106445994D01*
X165667287Y-106739287D01*
X165373994Y-107178230D01*
X165271003Y-107696000D01*
X160331000Y-107696000D01*
X160331000Y-107432043D01*
X160128976Y-106944315D01*
X159755685Y-106571024D01*
X159267957Y-106369000D01*
X158740043Y-106369000D01*
X158252315Y-106571024D01*
X157879024Y-106944315D01*
X157677000Y-107432043D01*
X148776862Y-107432043D01*
X147008819Y-105664000D01*
X148303085Y-105664000D01*
X148421598Y-106259806D01*
X148759095Y-106764905D01*
X149264194Y-107102402D01*
X149709607Y-107191000D01*
X150010393Y-107191000D01*
X150455806Y-107102402D01*
X150960905Y-106764905D01*
X151298402Y-106259806D01*
X151416915Y-105664000D01*
X151298402Y-105068194D01*
X151095146Y-104764000D01*
X153400717Y-104764000D01*
X153400717Y-106564000D01*
X153449380Y-106808643D01*
X153587959Y-107016041D01*
X153795357Y-107154620D01*
X154040000Y-107203283D01*
X155840000Y-107203283D01*
X156084643Y-107154620D01*
X156292041Y-107016041D01*
X156430620Y-106808643D01*
X156479283Y-106564000D01*
X156479283Y-104764000D01*
X156430620Y-104519357D01*
X156292041Y-104311959D01*
X156084643Y-104173380D01*
X155840000Y-104124717D01*
X154040000Y-104124717D01*
X153795357Y-104173380D01*
X153587959Y-104311959D01*
X153449380Y-104519357D01*
X153400717Y-104764000D01*
X151095146Y-104764000D01*
X150960905Y-104563095D01*
X150455806Y-104225598D01*
X150010393Y-104137000D01*
X149709607Y-104137000D01*
X149264194Y-104225598D01*
X148759095Y-104563095D01*
X148421598Y-105068194D01*
X148303085Y-105664000D01*
X147008819Y-105664000D01*
X144463000Y-103118182D01*
X144463000Y-102491084D01*
X144545753Y-102408331D01*
X144763000Y-101883848D01*
X144763000Y-101316152D01*
X144620167Y-100971320D01*
X146417279Y-100971320D01*
X146561181Y-101115222D01*
X146739838Y-101382602D01*
X146823505Y-101438506D01*
X146909000Y-101524001D01*
X146909000Y-101883848D01*
X147126247Y-102408331D01*
X147527669Y-102809753D01*
X148052152Y-103027000D01*
X148619848Y-103027000D01*
X149144331Y-102809753D01*
X149545753Y-102408331D01*
X149763000Y-101883848D01*
X149763000Y-101316152D01*
X149545753Y-100791669D01*
X149454084Y-100700000D01*
X154924717Y-100700000D01*
X154924717Y-102500000D01*
X154973380Y-102744643D01*
X155111959Y-102952041D01*
X155319357Y-103090620D01*
X155564000Y-103139283D01*
X157364000Y-103139283D01*
X157608643Y-103090620D01*
X157816041Y-102952041D01*
X157954620Y-102744643D01*
X158003283Y-102500000D01*
X158003283Y-101600000D01*
X159987085Y-101600000D01*
X160105598Y-102195806D01*
X160443095Y-102700905D01*
X160948194Y-103038402D01*
X161393607Y-103127000D01*
X161694393Y-103127000D01*
X162139806Y-103038402D01*
X162644905Y-102700905D01*
X162982402Y-102195806D01*
X163100915Y-101600000D01*
X163048411Y-101336043D01*
X164789000Y-101336043D01*
X164789000Y-101863957D01*
X164991024Y-102351685D01*
X165364315Y-102724976D01*
X165852043Y-102927000D01*
X166379957Y-102927000D01*
X166867685Y-102724976D01*
X167240976Y-102351685D01*
X167443000Y-101863957D01*
X167443000Y-101690042D01*
X167594302Y-101538740D01*
X167594304Y-101538737D01*
X167806042Y-101326999D01*
X172437306Y-101326999D01*
X172383003Y-101600000D01*
X172485994Y-102117770D01*
X172779287Y-102556713D01*
X173218230Y-102850006D01*
X173605304Y-102927000D01*
X173866696Y-102927000D01*
X174253770Y-102850006D01*
X174624936Y-102602000D01*
X180949232Y-102602000D01*
X180765959Y-102724459D01*
X180627380Y-102931857D01*
X180578717Y-103176500D01*
X180578717Y-104976500D01*
X180627380Y-105221143D01*
X180765959Y-105428541D01*
X180973357Y-105567120D01*
X181218000Y-105615783D01*
X183018000Y-105615783D01*
X183262643Y-105567120D01*
X183470041Y-105428541D01*
X183608620Y-105221143D01*
X183657283Y-104976500D01*
X183657283Y-104076500D01*
X185641085Y-104076500D01*
X185759598Y-104672306D01*
X186097095Y-105177405D01*
X186602194Y-105514902D01*
X187047607Y-105603500D01*
X187348393Y-105603500D01*
X187793806Y-105514902D01*
X188162410Y-105268608D01*
X197869497Y-105268608D01*
X198029721Y-105585129D01*
X198817594Y-105893779D01*
X199663609Y-105877428D01*
X200369279Y-105585129D01*
X200529503Y-105268608D01*
X199199500Y-103938605D01*
X197869497Y-105268608D01*
X188162410Y-105268608D01*
X188298905Y-105177405D01*
X188636402Y-104672306D01*
X188754915Y-104076500D01*
X188636402Y-103480694D01*
X188567179Y-103377094D01*
X197064721Y-103377094D01*
X197081072Y-104223109D01*
X197373371Y-104928779D01*
X197689892Y-105089003D01*
X199019895Y-103759000D01*
X199379105Y-103759000D01*
X200709108Y-105089003D01*
X201025629Y-104928779D01*
X201334279Y-104140906D01*
X201317928Y-103294891D01*
X201025629Y-102589221D01*
X200709108Y-102428997D01*
X199379105Y-103759000D01*
X199019895Y-103759000D01*
X197689892Y-102428997D01*
X197373371Y-102589221D01*
X197064721Y-103377094D01*
X188567179Y-103377094D01*
X188298905Y-102975595D01*
X187793806Y-102638098D01*
X187348393Y-102549500D01*
X187047607Y-102549500D01*
X186602194Y-102638098D01*
X186097095Y-102975595D01*
X185759598Y-103480694D01*
X185641085Y-104076500D01*
X183657283Y-104076500D01*
X183657283Y-103176500D01*
X183608620Y-102931857D01*
X183470041Y-102724459D01*
X183262643Y-102585880D01*
X183018000Y-102537217D01*
X181563407Y-102537217D01*
X181884902Y-102322402D01*
X181933685Y-102249392D01*
X197869497Y-102249392D01*
X199199500Y-103579395D01*
X200529503Y-102249392D01*
X200369279Y-101932871D01*
X199581406Y-101624221D01*
X198735391Y-101640572D01*
X198029721Y-101932871D01*
X197869497Y-102249392D01*
X181933685Y-102249392D01*
X181940807Y-102238734D01*
X184709175Y-99470367D01*
X184906357Y-99602120D01*
X185151000Y-99650783D01*
X186451000Y-99650783D01*
X186695643Y-99602120D01*
X186903041Y-99463541D01*
X187041620Y-99256143D01*
X187090283Y-99011500D01*
X187090283Y-97711500D01*
X187041620Y-97466857D01*
X186903041Y-97259459D01*
X186782626Y-97179000D01*
X197060217Y-97179000D01*
X197060217Y-100179000D01*
X197108880Y-100423643D01*
X197247459Y-100631041D01*
X197454857Y-100769620D01*
X197699500Y-100818283D01*
X200699500Y-100818283D01*
X200944143Y-100769620D01*
X201151541Y-100631041D01*
X201290120Y-100423643D01*
X201338783Y-100179000D01*
X201338783Y-97179000D01*
X201290120Y-96934357D01*
X201151541Y-96726959D01*
X200944143Y-96588380D01*
X200699500Y-96539717D01*
X197699500Y-96539717D01*
X197454857Y-96588380D01*
X197247459Y-96726959D01*
X197108880Y-96934357D01*
X197060217Y-97179000D01*
X186782626Y-97179000D01*
X186695643Y-97120880D01*
X186451000Y-97072217D01*
X186118464Y-97072217D01*
X186524362Y-96904088D01*
X186883588Y-96544862D01*
X187078000Y-96075511D01*
X187078000Y-95567489D01*
X186883588Y-95098138D01*
X186524362Y-94738912D01*
X186055011Y-94544500D01*
X185941042Y-94544500D01*
X184928307Y-93531766D01*
X184872402Y-93448098D01*
X184540961Y-93226637D01*
X184248687Y-93168500D01*
X184248686Y-93168500D01*
X184150000Y-93148870D01*
X184051314Y-93168500D01*
X174297929Y-93168500D01*
X174692713Y-92904713D01*
X174986006Y-92465770D01*
X175088997Y-91948000D01*
X174986006Y-91430230D01*
X174692713Y-90991287D01*
X174253770Y-90697994D01*
X173866696Y-90621000D01*
X173605304Y-90621000D01*
X173218230Y-90697994D01*
X172779287Y-90991287D01*
X172485994Y-91430230D01*
X172383003Y-91948000D01*
X172485994Y-92465770D01*
X172779287Y-92904713D01*
X173174071Y-93168500D01*
X171612184Y-93168500D01*
X171513499Y-93148870D01*
X171414814Y-93168500D01*
X171414813Y-93168500D01*
X171122539Y-93226637D01*
X170791098Y-93448098D01*
X170735195Y-93531763D01*
X169531959Y-94735000D01*
X169417989Y-94735000D01*
X168948638Y-94929412D01*
X168589412Y-95288638D01*
X168395000Y-95757989D01*
X168395000Y-96005000D01*
X168147989Y-96005000D01*
X167678638Y-96199412D01*
X167319412Y-96558638D01*
X167125000Y-97027989D01*
X167125000Y-97536011D01*
X167319412Y-98005362D01*
X167678638Y-98364588D01*
X168147989Y-98559000D01*
X168382717Y-98559000D01*
X168382717Y-99202000D01*
X168406785Y-99322999D01*
X167489688Y-99322999D01*
X167391001Y-99303369D01*
X167292314Y-99322999D01*
X167000040Y-99381136D01*
X166668599Y-99602597D01*
X166612694Y-99686265D01*
X166177263Y-100121696D01*
X166177260Y-100121698D01*
X166025958Y-100273000D01*
X165852043Y-100273000D01*
X165364315Y-100475024D01*
X164991024Y-100848315D01*
X164789000Y-101336043D01*
X163048411Y-101336043D01*
X162982402Y-101004194D01*
X162644905Y-100499095D01*
X162139806Y-100161598D01*
X161694393Y-100073000D01*
X161393607Y-100073000D01*
X160948194Y-100161598D01*
X160443095Y-100499095D01*
X160105598Y-101004194D01*
X159987085Y-101600000D01*
X158003283Y-101600000D01*
X158003283Y-100700000D01*
X157954620Y-100455357D01*
X157816041Y-100247959D01*
X157608643Y-100109380D01*
X157364000Y-100060717D01*
X155564000Y-100060717D01*
X155319357Y-100109380D01*
X155111959Y-100247959D01*
X154973380Y-100455357D01*
X154924717Y-100700000D01*
X149454084Y-100700000D01*
X149144331Y-100390247D01*
X148619848Y-100173000D01*
X148392081Y-100173000D01*
X148363298Y-100144217D01*
X148184642Y-99876838D01*
X148100975Y-99820934D01*
X147610627Y-99330586D01*
X147554722Y-99246918D01*
X147223281Y-99025457D01*
X146931007Y-98967320D01*
X146931006Y-98967320D01*
X146832320Y-98947690D01*
X146733634Y-98967320D01*
X143229378Y-98967320D01*
X143342041Y-98892041D01*
X143480620Y-98684643D01*
X143529283Y-98440000D01*
X143529283Y-97140000D01*
X143480620Y-96895357D01*
X143342041Y-96687959D01*
X143134643Y-96549380D01*
X142890000Y-96500717D01*
X142557464Y-96500717D01*
X142963362Y-96332588D01*
X143322588Y-95973362D01*
X143365402Y-95870000D01*
X154158717Y-95870000D01*
X154158717Y-97170000D01*
X154207380Y-97414643D01*
X154345959Y-97622041D01*
X154553357Y-97760620D01*
X154798000Y-97809283D01*
X156098000Y-97809283D01*
X156342643Y-97760620D01*
X156550041Y-97622041D01*
X156688620Y-97414643D01*
X156737283Y-97170000D01*
X156737283Y-96837464D01*
X156905412Y-97243362D01*
X157264638Y-97602588D01*
X157733989Y-97797000D01*
X158242011Y-97797000D01*
X158711362Y-97602588D01*
X159070588Y-97243362D01*
X159265000Y-96774011D01*
X159265000Y-96265989D01*
X159070588Y-95796638D01*
X158711362Y-95437412D01*
X158242011Y-95243000D01*
X157995000Y-95243000D01*
X157995000Y-94995989D01*
X157800588Y-94526638D01*
X157441362Y-94167412D01*
X156972011Y-93973000D01*
X156463989Y-93973000D01*
X155994638Y-94167412D01*
X155635412Y-94526638D01*
X155441000Y-94995989D01*
X155441000Y-95230717D01*
X154798000Y-95230717D01*
X154553357Y-95279380D01*
X154345959Y-95417959D01*
X154207380Y-95625357D01*
X154158717Y-95870000D01*
X143365402Y-95870000D01*
X143517000Y-95504011D01*
X143517000Y-94995989D01*
X143322588Y-94526638D01*
X142963362Y-94167412D01*
X142494011Y-93973000D01*
X141985989Y-93973000D01*
X141516638Y-94167412D01*
X141157412Y-94526638D01*
X140963000Y-94995989D01*
X140963000Y-95243000D01*
X140715989Y-95243000D01*
X140246638Y-95437412D01*
X139887412Y-95796638D01*
X139693000Y-96265989D01*
X139693000Y-96774011D01*
X139887412Y-97243362D01*
X140246638Y-97602588D01*
X140715989Y-97797000D01*
X140950717Y-97797000D01*
X140950717Y-98440000D01*
X140999380Y-98684643D01*
X141137959Y-98892041D01*
X141345357Y-99030620D01*
X141590000Y-99079283D01*
X141956442Y-99079283D01*
X141705558Y-99246918D01*
X141649655Y-99330583D01*
X138055424Y-102924815D01*
X137971759Y-102980718D01*
X137915857Y-103064382D01*
X137750297Y-103312160D01*
X137672530Y-103703120D01*
X122622000Y-103703120D01*
X122622000Y-102347608D01*
X124653997Y-102347608D01*
X124814221Y-102664129D01*
X125602094Y-102972779D01*
X126448109Y-102956428D01*
X127153779Y-102664129D01*
X127314003Y-102347608D01*
X125984000Y-101017605D01*
X124653997Y-102347608D01*
X122622000Y-102347608D01*
X122622000Y-100456094D01*
X123849221Y-100456094D01*
X123865572Y-101302109D01*
X124157871Y-102007779D01*
X124474392Y-102168003D01*
X125804395Y-100838000D01*
X126163605Y-100838000D01*
X127493608Y-102168003D01*
X127810129Y-102007779D01*
X127969876Y-101600000D01*
X132251003Y-101600000D01*
X132353994Y-102117770D01*
X132647287Y-102556713D01*
X133086230Y-102850006D01*
X133473304Y-102927000D01*
X133734696Y-102927000D01*
X134121770Y-102850006D01*
X134560713Y-102556713D01*
X134854006Y-102117770D01*
X134956997Y-101600000D01*
X134854006Y-101082230D01*
X134560713Y-100643287D01*
X134121770Y-100349994D01*
X133734696Y-100273000D01*
X133473304Y-100273000D01*
X133086230Y-100349994D01*
X132647287Y-100643287D01*
X132353994Y-101082230D01*
X132251003Y-101600000D01*
X127969876Y-101600000D01*
X128118779Y-101219906D01*
X128102428Y-100373891D01*
X127810129Y-99668221D01*
X127493608Y-99507997D01*
X126163605Y-100838000D01*
X125804395Y-100838000D01*
X124474392Y-99507997D01*
X124157871Y-99668221D01*
X123849221Y-100456094D01*
X122622000Y-100456094D01*
X122622000Y-99328392D01*
X124653997Y-99328392D01*
X125984000Y-100658395D01*
X127314003Y-99328392D01*
X127153779Y-99011871D01*
X126365906Y-98703221D01*
X125519891Y-98719572D01*
X124814221Y-99011871D01*
X124653997Y-99328392D01*
X122622000Y-99328392D01*
X122622000Y-94258000D01*
X123844717Y-94258000D01*
X123844717Y-97258000D01*
X123893380Y-97502643D01*
X124031959Y-97710041D01*
X124239357Y-97848620D01*
X124484000Y-97897283D01*
X127484000Y-97897283D01*
X127728643Y-97848620D01*
X127936041Y-97710041D01*
X128074620Y-97502643D01*
X128123283Y-97258000D01*
X128123283Y-94258000D01*
X128074620Y-94013357D01*
X127936041Y-93805959D01*
X127728643Y-93667380D01*
X127484000Y-93618717D01*
X124484000Y-93618717D01*
X124239357Y-93667380D01*
X124031959Y-93805959D01*
X123893380Y-94013357D01*
X123844717Y-94258000D01*
X122622000Y-94258000D01*
X122622000Y-91684043D01*
X164789000Y-91684043D01*
X164789000Y-92211957D01*
X164991024Y-92699685D01*
X165364315Y-93072976D01*
X165852043Y-93275000D01*
X166379957Y-93275000D01*
X166867685Y-93072976D01*
X167240976Y-92699685D01*
X167443000Y-92211957D01*
X167443000Y-91684043D01*
X167240976Y-91196315D01*
X166867685Y-90823024D01*
X166379957Y-90621000D01*
X165852043Y-90621000D01*
X165364315Y-90823024D01*
X164991024Y-91196315D01*
X164789000Y-91684043D01*
X122622000Y-91684043D01*
X122622000Y-90540000D01*
X175752717Y-90540000D01*
X175752717Y-92340000D01*
X175801380Y-92584643D01*
X175939959Y-92792041D01*
X176147357Y-92930620D01*
X176392000Y-92979283D01*
X178192000Y-92979283D01*
X178436643Y-92930620D01*
X178644041Y-92792041D01*
X178782620Y-92584643D01*
X178831283Y-92340000D01*
X178831283Y-91440000D01*
X180815085Y-91440000D01*
X180933598Y-92035806D01*
X181271095Y-92540905D01*
X181776194Y-92878402D01*
X182221607Y-92967000D01*
X182522393Y-92967000D01*
X182967806Y-92878402D01*
X183472905Y-92540905D01*
X183810402Y-92035806D01*
X183928915Y-91440000D01*
X183810402Y-90844194D01*
X183472905Y-90339095D01*
X182967806Y-90001598D01*
X182522393Y-89913000D01*
X182221607Y-89913000D01*
X181776194Y-90001598D01*
X181271095Y-90339095D01*
X180933598Y-90844194D01*
X180815085Y-91440000D01*
X178831283Y-91440000D01*
X178831283Y-90540000D01*
X178782620Y-90295357D01*
X178644041Y-90087959D01*
X178436643Y-89949380D01*
X178192000Y-89900717D01*
X176392000Y-89900717D01*
X176147357Y-89949380D01*
X175939959Y-90087959D01*
X175801380Y-90295357D01*
X175752717Y-90540000D01*
X122622000Y-90540000D01*
X122622000Y-85792000D01*
X202498000Y-85792000D01*
X202498001Y-121850860D01*
X202498001Y-121850860D01*
G37*
X202498001Y-121850860D02*
X202498000Y-121850865D01*
X202498001Y-123063000D01*
X122622000Y-123063000D01*
X122622000Y-108956043D01*
X132277000Y-108956043D01*
X132277000Y-109483957D01*
X132479024Y-109971685D01*
X132852315Y-110344976D01*
X133340043Y-110547000D01*
X133867957Y-110547000D01*
X134355685Y-110344976D01*
X134728976Y-109971685D01*
X134931000Y-109483957D01*
X134931000Y-108956043D01*
X134728976Y-108468315D01*
X134355685Y-108095024D01*
X133867957Y-107893000D01*
X133340043Y-107893000D01*
X132852315Y-108095024D01*
X132479024Y-108468315D01*
X132277000Y-108956043D01*
X122622000Y-108956043D01*
X122622000Y-105494913D01*
X123857000Y-105494913D01*
X123857000Y-106341087D01*
X124180817Y-107122848D01*
X124779152Y-107721183D01*
X125560913Y-108045000D01*
X126407087Y-108045000D01*
X127188848Y-107721183D01*
X127787183Y-107122848D01*
X128111000Y-106341087D01*
X128111000Y-105494913D01*
X127787183Y-104713152D01*
X127188848Y-104114817D01*
X126407087Y-103791000D01*
X125560913Y-103791000D01*
X124779152Y-104114817D01*
X124180817Y-104713152D01*
X123857000Y-105494913D01*
X122622000Y-105494913D01*
X122622000Y-103703120D01*
X137672530Y-103703120D01*
X137692161Y-103801811D01*
X137692160Y-107800513D01*
X137672530Y-107899200D01*
X137692160Y-107997886D01*
X137750297Y-108290160D01*
X137971758Y-108621602D01*
X138055426Y-108677507D01*
X141840155Y-112462237D01*
X141896058Y-112545902D01*
X142227499Y-112767363D01*
X142519773Y-112825500D01*
X142519774Y-112825500D01*
X142618459Y-112845130D01*
X142717144Y-112825500D01*
X147865614Y-112825500D01*
X147932459Y-112925541D01*
X148045201Y-113000873D01*
X148045200Y-118211114D01*
X147945159Y-118277959D01*
X147806580Y-118485357D01*
X147757917Y-118730000D01*
X147757917Y-120030000D01*
X147806580Y-120274643D01*
X147945159Y-120482041D01*
X148152557Y-120620620D01*
X148397200Y-120669283D01*
X149697200Y-120669283D01*
X149941843Y-120620620D01*
X150149241Y-120482041D01*
X150287820Y-120274643D01*
X150336483Y-120030000D01*
X150336483Y-119697464D01*
X150504612Y-120103362D01*
X150863838Y-120462588D01*
X151333189Y-120657000D01*
X151841211Y-120657000D01*
X152310562Y-120462588D01*
X152669788Y-120103362D01*
X152864200Y-119634011D01*
X152864200Y-119125989D01*
X152669788Y-118656638D01*
X152310562Y-118297412D01*
X151841211Y-118103000D01*
X151741241Y-118103000D01*
X152284328Y-117559913D01*
X158083500Y-117559913D01*
X158083500Y-118406087D01*
X158407317Y-119187848D01*
X159005652Y-119786183D01*
X159787413Y-120110000D01*
X160633587Y-120110000D01*
X161415348Y-119786183D01*
X161708923Y-119492608D01*
X163960497Y-119492608D01*
X164120721Y-119809129D01*
X164908594Y-120117779D01*
X165754609Y-120101428D01*
X166460279Y-119809129D01*
X166620503Y-119492608D01*
X165290500Y-118162605D01*
X163960497Y-119492608D01*
X161708923Y-119492608D01*
X162013683Y-119187848D01*
X162337500Y-118406087D01*
X162337500Y-117601094D01*
X163155721Y-117601094D01*
X163172072Y-118447109D01*
X163464371Y-119152779D01*
X163780892Y-119313003D01*
X165110895Y-117983000D01*
X165470105Y-117983000D01*
X166800108Y-119313003D01*
X167116629Y-119152779D01*
X167425279Y-118364906D01*
X167408928Y-117518891D01*
X167116629Y-116813221D01*
X166800108Y-116652997D01*
X165470105Y-117983000D01*
X165110895Y-117983000D01*
X163780892Y-116652997D01*
X163464371Y-116813221D01*
X163155721Y-117601094D01*
X162337500Y-117601094D01*
X162337500Y-117559913D01*
X162013683Y-116778152D01*
X161708923Y-116473392D01*
X163960497Y-116473392D01*
X165290500Y-117803395D01*
X166610895Y-116483000D01*
X168231217Y-116483000D01*
X168231217Y-119483000D01*
X168279880Y-119727643D01*
X168418459Y-119935041D01*
X168625857Y-120073620D01*
X168870500Y-120122283D01*
X171870500Y-120122283D01*
X172115143Y-120073620D01*
X172322541Y-119935041D01*
X172461120Y-119727643D01*
X172509783Y-119483000D01*
X172509783Y-117909543D01*
X177743000Y-117909543D01*
X177743000Y-118437457D01*
X177945024Y-118925185D01*
X178318315Y-119298476D01*
X178806043Y-119500500D01*
X179333957Y-119500500D01*
X179821685Y-119298476D01*
X180194976Y-118925185D01*
X180397000Y-118437457D01*
X180397000Y-118173500D01*
X185337003Y-118173500D01*
X185439994Y-118691270D01*
X185733287Y-119130213D01*
X186172230Y-119423506D01*
X186559304Y-119500500D01*
X186820696Y-119500500D01*
X187207770Y-119423506D01*
X187646713Y-119130213D01*
X187940006Y-118691270D01*
X188027334Y-118252240D01*
X191579605Y-118252240D01*
X191698118Y-118848046D01*
X192035615Y-119353145D01*
X192540714Y-119690642D01*
X192986127Y-119779240D01*
X193286913Y-119779240D01*
X193732326Y-119690642D01*
X194237425Y-119353145D01*
X194574922Y-118848046D01*
X194693435Y-118252240D01*
X194574922Y-117656434D01*
X194237425Y-117151335D01*
X193732326Y-116813838D01*
X193286913Y-116725240D01*
X192986127Y-116725240D01*
X192540714Y-116813838D01*
X192035615Y-117151335D01*
X191698118Y-117656434D01*
X191579605Y-118252240D01*
X188027334Y-118252240D01*
X188042997Y-118173500D01*
X187940006Y-117655730D01*
X187646713Y-117216787D01*
X187207770Y-116923494D01*
X186820696Y-116846500D01*
X186559304Y-116846500D01*
X186172230Y-116923494D01*
X185733287Y-117216787D01*
X185439994Y-117655730D01*
X185337003Y-118173500D01*
X180397000Y-118173500D01*
X180397000Y-117909543D01*
X180194976Y-117421815D01*
X179821685Y-117048524D01*
X179333957Y-116846500D01*
X178806043Y-116846500D01*
X178318315Y-117048524D01*
X177945024Y-117421815D01*
X177743000Y-117909543D01*
X172509783Y-117909543D01*
X172509783Y-116483000D01*
X172461120Y-116238357D01*
X172322541Y-116030959D01*
X172115143Y-115892380D01*
X171870500Y-115843717D01*
X168870500Y-115843717D01*
X168625857Y-115892380D01*
X168418459Y-116030959D01*
X168279880Y-116238357D01*
X168231217Y-116483000D01*
X166610895Y-116483000D01*
X166620503Y-116473392D01*
X166460279Y-116156871D01*
X165672406Y-115848221D01*
X164826391Y-115864572D01*
X164120721Y-116156871D01*
X163960497Y-116473392D01*
X161708923Y-116473392D01*
X161415348Y-116179817D01*
X160633587Y-115856000D01*
X159787413Y-115856000D01*
X159005652Y-116179817D01*
X158407317Y-116778152D01*
X158083500Y-117559913D01*
X152284328Y-117559913D01*
X155812242Y-114032000D01*
X174399314Y-114032000D01*
X174498000Y-114051630D01*
X174596686Y-114032000D01*
X174596687Y-114032000D01*
X174888961Y-113973863D01*
X175220402Y-113752402D01*
X175276307Y-113668734D01*
X176672801Y-112272240D01*
X191597237Y-112272240D01*
X191597237Y-114072240D01*
X191645900Y-114316883D01*
X191784479Y-114524281D01*
X191991877Y-114662860D01*
X192236520Y-114711523D01*
X194036520Y-114711523D01*
X194281163Y-114662860D01*
X194488561Y-114524281D01*
X194627140Y-114316883D01*
X194675803Y-114072240D01*
X194675803Y-112272240D01*
X194627140Y-112027597D01*
X194488561Y-111820199D01*
X194281163Y-111681620D01*
X194036520Y-111632957D01*
X192236520Y-111632957D01*
X191991877Y-111681620D01*
X191784479Y-111820199D01*
X191645900Y-112027597D01*
X191597237Y-112272240D01*
X176672801Y-112272240D01*
X177373404Y-111571638D01*
X177416828Y-111563000D01*
X177422696Y-111563000D01*
X177809770Y-111486006D01*
X178248713Y-111192713D01*
X178542006Y-110753770D01*
X178644997Y-110236000D01*
X178542006Y-109718230D01*
X178248713Y-109279287D01*
X178159984Y-109220000D01*
X178248713Y-109160713D01*
X178542006Y-108721770D01*
X178644997Y-108204000D01*
X178542006Y-107686230D01*
X178248713Y-107247287D01*
X178159984Y-107188000D01*
X178248713Y-107128713D01*
X178542006Y-106689770D01*
X178644997Y-106172000D01*
X178542006Y-105654230D01*
X178248713Y-105215287D01*
X177809770Y-104921994D01*
X177422696Y-104845000D01*
X177161304Y-104845000D01*
X176774230Y-104921994D01*
X176335287Y-105215287D01*
X176041994Y-105654230D01*
X175939003Y-106172000D01*
X176041994Y-106689770D01*
X176335287Y-107128713D01*
X176424016Y-107188000D01*
X176335287Y-107247287D01*
X176041994Y-107686230D01*
X175954906Y-108124053D01*
X173257459Y-110821500D01*
X170865812Y-110821500D01*
X170999000Y-110499957D01*
X170999000Y-109972043D01*
X170796976Y-109484315D01*
X170532661Y-109220000D01*
X170796976Y-108955685D01*
X170999000Y-108467957D01*
X170999000Y-107940043D01*
X170796976Y-107452315D01*
X170532661Y-107188000D01*
X170796976Y-106923685D01*
X170999000Y-106435957D01*
X170999000Y-105908043D01*
X170796976Y-105420315D01*
X170423685Y-105047024D01*
X169935957Y-104845000D01*
X169408043Y-104845000D01*
X168920315Y-105047024D01*
X168547024Y-105420315D01*
X168345000Y-105908043D01*
X168345000Y-106435957D01*
X168547024Y-106923685D01*
X168811339Y-107188000D01*
X168547024Y-107452315D01*
X168345000Y-107940043D01*
X168345000Y-108467957D01*
X168547024Y-108955685D01*
X168811339Y-109220000D01*
X168547024Y-109484315D01*
X168345000Y-109972043D01*
X168345000Y-110499957D01*
X168478188Y-110821500D01*
X152378450Y-110821500D01*
X152297862Y-110740912D01*
X151828511Y-110546500D01*
X151581500Y-110546500D01*
X151581500Y-110299489D01*
X151387088Y-109830138D01*
X151027862Y-109470912D01*
X150665729Y-109320911D01*
X150529900Y-109185082D01*
X150529898Y-109185079D01*
X148776862Y-107432043D01*
X157677000Y-107432043D01*
X157677000Y-107959957D01*
X157879024Y-108447685D01*
X158252315Y-108820976D01*
X158740043Y-109023000D01*
X159267957Y-109023000D01*
X159755685Y-108820976D01*
X160128976Y-108447685D01*
X160331000Y-107959957D01*
X160331000Y-107696000D01*
X165271003Y-107696000D01*
X165373994Y-108213770D01*
X165667287Y-108652713D01*
X166106230Y-108946006D01*
X166493304Y-109023000D01*
X166754696Y-109023000D01*
X167141770Y-108946006D01*
X167580713Y-108652713D01*
X167874006Y-108213770D01*
X167976997Y-107696000D01*
X167874006Y-107178230D01*
X167580713Y-106739287D01*
X167141770Y-106445994D01*
X166754696Y-106369000D01*
X166493304Y-106369000D01*
X166106230Y-106445994D01*
X165667287Y-106739287D01*
X165373994Y-107178230D01*
X165271003Y-107696000D01*
X160331000Y-107696000D01*
X160331000Y-107432043D01*
X160128976Y-106944315D01*
X159755685Y-106571024D01*
X159267957Y-106369000D01*
X158740043Y-106369000D01*
X158252315Y-106571024D01*
X157879024Y-106944315D01*
X157677000Y-107432043D01*
X148776862Y-107432043D01*
X147008819Y-105664000D01*
X148303085Y-105664000D01*
X148421598Y-106259806D01*
X148759095Y-106764905D01*
X149264194Y-107102402D01*
X149709607Y-107191000D01*
X150010393Y-107191000D01*
X150455806Y-107102402D01*
X150960905Y-106764905D01*
X151298402Y-106259806D01*
X151416915Y-105664000D01*
X151298402Y-105068194D01*
X151095146Y-104764000D01*
X153400717Y-104764000D01*
X153400717Y-106564000D01*
X153449380Y-106808643D01*
X153587959Y-107016041D01*
X153795357Y-107154620D01*
X154040000Y-107203283D01*
X155840000Y-107203283D01*
X156084643Y-107154620D01*
X156292041Y-107016041D01*
X156430620Y-106808643D01*
X156479283Y-106564000D01*
X156479283Y-104764000D01*
X156430620Y-104519357D01*
X156292041Y-104311959D01*
X156084643Y-104173380D01*
X155840000Y-104124717D01*
X154040000Y-104124717D01*
X153795357Y-104173380D01*
X153587959Y-104311959D01*
X153449380Y-104519357D01*
X153400717Y-104764000D01*
X151095146Y-104764000D01*
X150960905Y-104563095D01*
X150455806Y-104225598D01*
X150010393Y-104137000D01*
X149709607Y-104137000D01*
X149264194Y-104225598D01*
X148759095Y-104563095D01*
X148421598Y-105068194D01*
X148303085Y-105664000D01*
X147008819Y-105664000D01*
X144463000Y-103118182D01*
X144463000Y-102491084D01*
X144545753Y-102408331D01*
X144763000Y-101883848D01*
X144763000Y-101316152D01*
X144620167Y-100971320D01*
X146417279Y-100971320D01*
X146561181Y-101115222D01*
X146739838Y-101382602D01*
X146823505Y-101438506D01*
X146909000Y-101524001D01*
X146909000Y-101883848D01*
X147126247Y-102408331D01*
X147527669Y-102809753D01*
X148052152Y-103027000D01*
X148619848Y-103027000D01*
X149144331Y-102809753D01*
X149545753Y-102408331D01*
X149763000Y-101883848D01*
X149763000Y-101316152D01*
X149545753Y-100791669D01*
X149454084Y-100700000D01*
X154924717Y-100700000D01*
X154924717Y-102500000D01*
X154973380Y-102744643D01*
X155111959Y-102952041D01*
X155319357Y-103090620D01*
X155564000Y-103139283D01*
X157364000Y-103139283D01*
X157608643Y-103090620D01*
X157816041Y-102952041D01*
X157954620Y-102744643D01*
X158003283Y-102500000D01*
X158003283Y-101600000D01*
X159987085Y-101600000D01*
X160105598Y-102195806D01*
X160443095Y-102700905D01*
X160948194Y-103038402D01*
X161393607Y-103127000D01*
X161694393Y-103127000D01*
X162139806Y-103038402D01*
X162644905Y-102700905D01*
X162982402Y-102195806D01*
X163100915Y-101600000D01*
X163048411Y-101336043D01*
X164789000Y-101336043D01*
X164789000Y-101863957D01*
X164991024Y-102351685D01*
X165364315Y-102724976D01*
X165852043Y-102927000D01*
X166379957Y-102927000D01*
X166867685Y-102724976D01*
X167240976Y-102351685D01*
X167443000Y-101863957D01*
X167443000Y-101690042D01*
X167594302Y-101538740D01*
X167594304Y-101538737D01*
X167806042Y-101326999D01*
X172437306Y-101326999D01*
X172383003Y-101600000D01*
X172485994Y-102117770D01*
X172779287Y-102556713D01*
X173218230Y-102850006D01*
X173605304Y-102927000D01*
X173866696Y-102927000D01*
X174253770Y-102850006D01*
X174624936Y-102602000D01*
X180949232Y-102602000D01*
X180765959Y-102724459D01*
X180627380Y-102931857D01*
X180578717Y-103176500D01*
X180578717Y-104976500D01*
X180627380Y-105221143D01*
X180765959Y-105428541D01*
X180973357Y-105567120D01*
X181218000Y-105615783D01*
X183018000Y-105615783D01*
X183262643Y-105567120D01*
X183470041Y-105428541D01*
X183608620Y-105221143D01*
X183657283Y-104976500D01*
X183657283Y-104076500D01*
X185641085Y-104076500D01*
X185759598Y-104672306D01*
X186097095Y-105177405D01*
X186602194Y-105514902D01*
X187047607Y-105603500D01*
X187348393Y-105603500D01*
X187793806Y-105514902D01*
X188162410Y-105268608D01*
X197869497Y-105268608D01*
X198029721Y-105585129D01*
X198817594Y-105893779D01*
X199663609Y-105877428D01*
X200369279Y-105585129D01*
X200529503Y-105268608D01*
X199199500Y-103938605D01*
X197869497Y-105268608D01*
X188162410Y-105268608D01*
X188298905Y-105177405D01*
X188636402Y-104672306D01*
X188754915Y-104076500D01*
X188636402Y-103480694D01*
X188567179Y-103377094D01*
X197064721Y-103377094D01*
X197081072Y-104223109D01*
X197373371Y-104928779D01*
X197689892Y-105089003D01*
X199019895Y-103759000D01*
X199379105Y-103759000D01*
X200709108Y-105089003D01*
X201025629Y-104928779D01*
X201334279Y-104140906D01*
X201317928Y-103294891D01*
X201025629Y-102589221D01*
X200709108Y-102428997D01*
X199379105Y-103759000D01*
X199019895Y-103759000D01*
X197689892Y-102428997D01*
X197373371Y-102589221D01*
X197064721Y-103377094D01*
X188567179Y-103377094D01*
X188298905Y-102975595D01*
X187793806Y-102638098D01*
X187348393Y-102549500D01*
X187047607Y-102549500D01*
X186602194Y-102638098D01*
X186097095Y-102975595D01*
X185759598Y-103480694D01*
X185641085Y-104076500D01*
X183657283Y-104076500D01*
X183657283Y-103176500D01*
X183608620Y-102931857D01*
X183470041Y-102724459D01*
X183262643Y-102585880D01*
X183018000Y-102537217D01*
X181563407Y-102537217D01*
X181884902Y-102322402D01*
X181933685Y-102249392D01*
X197869497Y-102249392D01*
X199199500Y-103579395D01*
X200529503Y-102249392D01*
X200369279Y-101932871D01*
X199581406Y-101624221D01*
X198735391Y-101640572D01*
X198029721Y-101932871D01*
X197869497Y-102249392D01*
X181933685Y-102249392D01*
X181940807Y-102238734D01*
X184709175Y-99470367D01*
X184906357Y-99602120D01*
X185151000Y-99650783D01*
X186451000Y-99650783D01*
X186695643Y-99602120D01*
X186903041Y-99463541D01*
X187041620Y-99256143D01*
X187090283Y-99011500D01*
X187090283Y-97711500D01*
X187041620Y-97466857D01*
X186903041Y-97259459D01*
X186782626Y-97179000D01*
X197060217Y-97179000D01*
X197060217Y-100179000D01*
X197108880Y-100423643D01*
X197247459Y-100631041D01*
X197454857Y-100769620D01*
X197699500Y-100818283D01*
X200699500Y-100818283D01*
X200944143Y-100769620D01*
X201151541Y-100631041D01*
X201290120Y-100423643D01*
X201338783Y-100179000D01*
X201338783Y-97179000D01*
X201290120Y-96934357D01*
X201151541Y-96726959D01*
X200944143Y-96588380D01*
X200699500Y-96539717D01*
X197699500Y-96539717D01*
X197454857Y-96588380D01*
X197247459Y-96726959D01*
X197108880Y-96934357D01*
X197060217Y-97179000D01*
X186782626Y-97179000D01*
X186695643Y-97120880D01*
X186451000Y-97072217D01*
X186118464Y-97072217D01*
X186524362Y-96904088D01*
X186883588Y-96544862D01*
X187078000Y-96075511D01*
X187078000Y-95567489D01*
X186883588Y-95098138D01*
X186524362Y-94738912D01*
X186055011Y-94544500D01*
X185941042Y-94544500D01*
X184928307Y-93531766D01*
X184872402Y-93448098D01*
X184540961Y-93226637D01*
X184248687Y-93168500D01*
X184248686Y-93168500D01*
X184150000Y-93148870D01*
X184051314Y-93168500D01*
X174297929Y-93168500D01*
X174692713Y-92904713D01*
X174986006Y-92465770D01*
X175088997Y-91948000D01*
X174986006Y-91430230D01*
X174692713Y-90991287D01*
X174253770Y-90697994D01*
X173866696Y-90621000D01*
X173605304Y-90621000D01*
X173218230Y-90697994D01*
X172779287Y-90991287D01*
X172485994Y-91430230D01*
X172383003Y-91948000D01*
X172485994Y-92465770D01*
X172779287Y-92904713D01*
X173174071Y-93168500D01*
X171612184Y-93168500D01*
X171513499Y-93148870D01*
X171414814Y-93168500D01*
X171414813Y-93168500D01*
X171122539Y-93226637D01*
X170791098Y-93448098D01*
X170735195Y-93531763D01*
X169531959Y-94735000D01*
X169417989Y-94735000D01*
X168948638Y-94929412D01*
X168589412Y-95288638D01*
X168395000Y-95757989D01*
X168395000Y-96005000D01*
X168147989Y-96005000D01*
X167678638Y-96199412D01*
X167319412Y-96558638D01*
X167125000Y-97027989D01*
X167125000Y-97536011D01*
X167319412Y-98005362D01*
X167678638Y-98364588D01*
X168147989Y-98559000D01*
X168382717Y-98559000D01*
X168382717Y-99202000D01*
X168406785Y-99322999D01*
X167489688Y-99322999D01*
X167391001Y-99303369D01*
X167292314Y-99322999D01*
X167000040Y-99381136D01*
X166668599Y-99602597D01*
X166612694Y-99686265D01*
X166177263Y-100121696D01*
X166177260Y-100121698D01*
X166025958Y-100273000D01*
X165852043Y-100273000D01*
X165364315Y-100475024D01*
X164991024Y-100848315D01*
X164789000Y-101336043D01*
X163048411Y-101336043D01*
X162982402Y-101004194D01*
X162644905Y-100499095D01*
X162139806Y-100161598D01*
X161694393Y-100073000D01*
X161393607Y-100073000D01*
X160948194Y-100161598D01*
X160443095Y-100499095D01*
X160105598Y-101004194D01*
X159987085Y-101600000D01*
X158003283Y-101600000D01*
X158003283Y-100700000D01*
X157954620Y-100455357D01*
X157816041Y-100247959D01*
X157608643Y-100109380D01*
X157364000Y-100060717D01*
X155564000Y-100060717D01*
X155319357Y-100109380D01*
X155111959Y-100247959D01*
X154973380Y-100455357D01*
X154924717Y-100700000D01*
X149454084Y-100700000D01*
X149144331Y-100390247D01*
X148619848Y-100173000D01*
X148392081Y-100173000D01*
X148363298Y-100144217D01*
X148184642Y-99876838D01*
X148100975Y-99820934D01*
X147610627Y-99330586D01*
X147554722Y-99246918D01*
X147223281Y-99025457D01*
X146931007Y-98967320D01*
X146931006Y-98967320D01*
X146832320Y-98947690D01*
X146733634Y-98967320D01*
X143229378Y-98967320D01*
X143342041Y-98892041D01*
X143480620Y-98684643D01*
X143529283Y-98440000D01*
X143529283Y-97140000D01*
X143480620Y-96895357D01*
X143342041Y-96687959D01*
X143134643Y-96549380D01*
X142890000Y-96500717D01*
X142557464Y-96500717D01*
X142963362Y-96332588D01*
X143322588Y-95973362D01*
X143365402Y-95870000D01*
X154158717Y-95870000D01*
X154158717Y-97170000D01*
X154207380Y-97414643D01*
X154345959Y-97622041D01*
X154553357Y-97760620D01*
X154798000Y-97809283D01*
X156098000Y-97809283D01*
X156342643Y-97760620D01*
X156550041Y-97622041D01*
X156688620Y-97414643D01*
X156737283Y-97170000D01*
X156737283Y-96837464D01*
X156905412Y-97243362D01*
X157264638Y-97602588D01*
X157733989Y-97797000D01*
X158242011Y-97797000D01*
X158711362Y-97602588D01*
X159070588Y-97243362D01*
X159265000Y-96774011D01*
X159265000Y-96265989D01*
X159070588Y-95796638D01*
X158711362Y-95437412D01*
X158242011Y-95243000D01*
X157995000Y-95243000D01*
X157995000Y-94995989D01*
X157800588Y-94526638D01*
X157441362Y-94167412D01*
X156972011Y-93973000D01*
X156463989Y-93973000D01*
X155994638Y-94167412D01*
X155635412Y-94526638D01*
X155441000Y-94995989D01*
X155441000Y-95230717D01*
X154798000Y-95230717D01*
X154553357Y-95279380D01*
X154345959Y-95417959D01*
X154207380Y-95625357D01*
X154158717Y-95870000D01*
X143365402Y-95870000D01*
X143517000Y-95504011D01*
X143517000Y-94995989D01*
X143322588Y-94526638D01*
X142963362Y-94167412D01*
X142494011Y-93973000D01*
X141985989Y-93973000D01*
X141516638Y-94167412D01*
X141157412Y-94526638D01*
X140963000Y-94995989D01*
X140963000Y-95243000D01*
X140715989Y-95243000D01*
X140246638Y-95437412D01*
X139887412Y-95796638D01*
X139693000Y-96265989D01*
X139693000Y-96774011D01*
X139887412Y-97243362D01*
X140246638Y-97602588D01*
X140715989Y-97797000D01*
X140950717Y-97797000D01*
X140950717Y-98440000D01*
X140999380Y-98684643D01*
X141137959Y-98892041D01*
X141345357Y-99030620D01*
X141590000Y-99079283D01*
X141956442Y-99079283D01*
X141705558Y-99246918D01*
X141649655Y-99330583D01*
X138055424Y-102924815D01*
X137971759Y-102980718D01*
X137915857Y-103064382D01*
X137750297Y-103312160D01*
X137672530Y-103703120D01*
X122622000Y-103703120D01*
X122622000Y-102347608D01*
X124653997Y-102347608D01*
X124814221Y-102664129D01*
X125602094Y-102972779D01*
X126448109Y-102956428D01*
X127153779Y-102664129D01*
X127314003Y-102347608D01*
X125984000Y-101017605D01*
X124653997Y-102347608D01*
X122622000Y-102347608D01*
X122622000Y-100456094D01*
X123849221Y-100456094D01*
X123865572Y-101302109D01*
X124157871Y-102007779D01*
X124474392Y-102168003D01*
X125804395Y-100838000D01*
X126163605Y-100838000D01*
X127493608Y-102168003D01*
X127810129Y-102007779D01*
X127969876Y-101600000D01*
X132251003Y-101600000D01*
X132353994Y-102117770D01*
X132647287Y-102556713D01*
X133086230Y-102850006D01*
X133473304Y-102927000D01*
X133734696Y-102927000D01*
X134121770Y-102850006D01*
X134560713Y-102556713D01*
X134854006Y-102117770D01*
X134956997Y-101600000D01*
X134854006Y-101082230D01*
X134560713Y-100643287D01*
X134121770Y-100349994D01*
X133734696Y-100273000D01*
X133473304Y-100273000D01*
X133086230Y-100349994D01*
X132647287Y-100643287D01*
X132353994Y-101082230D01*
X132251003Y-101600000D01*
X127969876Y-101600000D01*
X128118779Y-101219906D01*
X128102428Y-100373891D01*
X127810129Y-99668221D01*
X127493608Y-99507997D01*
X126163605Y-100838000D01*
X125804395Y-100838000D01*
X124474392Y-99507997D01*
X124157871Y-99668221D01*
X123849221Y-100456094D01*
X122622000Y-100456094D01*
X122622000Y-99328392D01*
X124653997Y-99328392D01*
X125984000Y-100658395D01*
X127314003Y-99328392D01*
X127153779Y-99011871D01*
X126365906Y-98703221D01*
X125519891Y-98719572D01*
X124814221Y-99011871D01*
X124653997Y-99328392D01*
X122622000Y-99328392D01*
X122622000Y-94258000D01*
X123844717Y-94258000D01*
X123844717Y-97258000D01*
X123893380Y-97502643D01*
X124031959Y-97710041D01*
X124239357Y-97848620D01*
X124484000Y-97897283D01*
X127484000Y-97897283D01*
X127728643Y-97848620D01*
X127936041Y-97710041D01*
X128074620Y-97502643D01*
X128123283Y-97258000D01*
X128123283Y-94258000D01*
X128074620Y-94013357D01*
X127936041Y-93805959D01*
X127728643Y-93667380D01*
X127484000Y-93618717D01*
X124484000Y-93618717D01*
X124239357Y-93667380D01*
X124031959Y-93805959D01*
X123893380Y-94013357D01*
X123844717Y-94258000D01*
X122622000Y-94258000D01*
X122622000Y-91684043D01*
X164789000Y-91684043D01*
X164789000Y-92211957D01*
X164991024Y-92699685D01*
X165364315Y-93072976D01*
X165852043Y-93275000D01*
X166379957Y-93275000D01*
X166867685Y-93072976D01*
X167240976Y-92699685D01*
X167443000Y-92211957D01*
X167443000Y-91684043D01*
X167240976Y-91196315D01*
X166867685Y-90823024D01*
X166379957Y-90621000D01*
X165852043Y-90621000D01*
X165364315Y-90823024D01*
X164991024Y-91196315D01*
X164789000Y-91684043D01*
X122622000Y-91684043D01*
X122622000Y-90540000D01*
X175752717Y-90540000D01*
X175752717Y-92340000D01*
X175801380Y-92584643D01*
X175939959Y-92792041D01*
X176147357Y-92930620D01*
X176392000Y-92979283D01*
X178192000Y-92979283D01*
X178436643Y-92930620D01*
X178644041Y-92792041D01*
X178782620Y-92584643D01*
X178831283Y-92340000D01*
X178831283Y-91440000D01*
X180815085Y-91440000D01*
X180933598Y-92035806D01*
X181271095Y-92540905D01*
X181776194Y-92878402D01*
X182221607Y-92967000D01*
X182522393Y-92967000D01*
X182967806Y-92878402D01*
X183472905Y-92540905D01*
X183810402Y-92035806D01*
X183928915Y-91440000D01*
X183810402Y-90844194D01*
X183472905Y-90339095D01*
X182967806Y-90001598D01*
X182522393Y-89913000D01*
X182221607Y-89913000D01*
X181776194Y-90001598D01*
X181271095Y-90339095D01*
X180933598Y-90844194D01*
X180815085Y-91440000D01*
X178831283Y-91440000D01*
X178831283Y-90540000D01*
X178782620Y-90295357D01*
X178644041Y-90087959D01*
X178436643Y-89949380D01*
X178192000Y-89900717D01*
X176392000Y-89900717D01*
X176147357Y-89949380D01*
X175939959Y-90087959D01*
X175801380Y-90295357D01*
X175752717Y-90540000D01*
X122622000Y-90540000D01*
X122622000Y-85792000D01*
X202498000Y-85792000D01*
X202498001Y-121850860D01*
G04 #@! TD*
M02*
